<svg height="496pt" viewBox="0 -2 496 495" width="496pt" xmlns="http://www.w3.org/2000/svg"><path d="m485.816406 126.820312-165.816406-126.320312-165.816406 126.328125c-1.222656.929687-2.320313 1.976563-3.34375 3.078125-6.488282-4.558594-14.3125-7.351562-22.839844-7.351562-19.320312 0-35.480469 13.769531-39.191406 32h-24.808594v16h-40c-13.230469 0-24 10.769531-24 24v272c0 13.234374 10.769531 24 24 24h208c13.230469 0 24-10.765626 24-24v-40.175782l112 .175782c17.648438 0 32-14.351563 32-32 0-17.648438-14.351562-32-32-32h-112v-40h192v-154.3125l6.246094 4.867187c4.53125 3.511719 10.160156 5.445313 15.890625 5.445313 14.261719 0 25.863281-11.597657 25.863281-25.863282v-5.28125c0-8.023437-3.816406-15.71875-10.183594-20.589844zm-405.816406 43.734376h24v-8c0-13.230469 10.769531-24 24-24s24 10.769531 24 24v8h24v48h-96zm112 64v-16h16v144h-32l-50.496094 14.113281c-7.953125 2.265625-13.503906 9.625-13.503906 17.886719 0 8.265624 5.550781 15.625 13.503906 17.890624l48.304688 13.808594 34.191406.054688v16.246094h-160v-224h16v16zm-8 176v-32h136v32zm-16-2.605469-38.121094-10.898438c-1.101562-.3125-1.878906-1.335937-1.878906-2.496093 0-1.160157.777344-2.183594 1.886719-2.496094l38.113281-10.894532zm72 58.605469c0 4.417968-3.585938 8-8 8h-208c-4.414062 0-8-3.582032-8-8v-272c0-4.414063 3.585938-8 8-8h40v16h-32v256h192v-32.222657l16 .023438zm144-72c0 8.824218-7.175781 16-16 16h-32v-32h32c8.824219 0 16 7.175781 16 16zm-160-32v-160h-32v-16h40c4.414062 0 8 3.585937 8 8v168zm64-56v-80h64v80zm144 0h-64v-96h-96v96h-16v-112c0-13.230469-10.769531-24-24-24h-40v-2.300782l128-99.5625 112 87.113282zm48-153.863282c0 5.433594-4.433594 9.863282-9.863281 9.863282-2.175781 0-4.335938-.742188-6.058594-2.078126l-144.078125-112.054687-136.457031 106.132813h-16.351563c-.960937-4.6875-2.757812-9.0625-5.207031-13.007813.550781-.734375 1.167969-1.429687 1.894531-1.992187l156.121094-118.941407 156.113281 118.933594c2.4375 1.855469 3.886719 4.800781 3.886719 7.855469zm0 0"/><path d="m376 130.554688h-48v48h48zm-16 32h-16v-16h16zm0 0"/><path d="m264 178.554688h48v-48h-48zm16-32h16v16h-16zm0 0"/><path d="m96 186.554688h16v16h-16zm0 0"/><path d="m144 186.554688h16v16h-16zm0 0"/><path d="m64 362.554688h80v-60.6875l37.65625-37.65625-11.3125-11.3125-29.65625 29.65625h-76.6875zm16-64h44.6875l-20.6875 20.6875-10.34375-10.34375-11.3125 11.3125 21.65625 21.65625 24-24v28.6875h-48zm0 0"/></svg>